<svg width="164" height="44" viewBox="0 0 164 44" fill="none" xmlns="http://www.w3.org/2000/svg">
<path d="M116.778 1.38889C116.778 1.02053 116.631 0.667263 116.371 0.406796C116.111 0.146329 115.757 0 115.389 0C115.021 0 114.667 0.146329 114.407 0.406796C114.146 0.667263 114 1.02053 114 1.38889V9.72222C114 11.3231 114.552 12.875 115.565 14.1151C116.577 15.3553 117.987 16.2076 119.556 16.5278V37.5C119.556 37.8684 119.702 38.2216 119.962 38.4821C120.223 38.7426 120.576 38.8889 120.944 38.8889C121.313 38.8889 121.666 38.7426 121.927 38.4821C122.187 38.2216 122.333 37.8684 122.333 37.5V16.5278C123.902 16.2076 125.312 15.3553 126.324 14.1151C127.336 12.875 127.889 11.3231 127.889 9.72222V1.38889C127.889 1.02053 127.743 0.667263 127.482 0.406796C127.222 0.146329 126.868 0 126.5 0C126.132 0 125.778 0.146329 125.518 0.406796C125.257 0.667263 125.111 1.02053 125.111 1.38889V9.72222C125.112 10.5842 124.845 11.4252 124.347 12.1291C123.85 12.8331 123.146 13.3654 122.333 13.6528V1.38889C122.333 1.02053 122.187 0.667263 121.927 0.406796C121.666 0.146329 121.313 0 120.944 0C120.576 0 120.223 0.146329 119.962 0.406796C119.702 0.667263 119.556 1.02053 119.556 1.38889V13.6528C118.743 13.3654 118.039 12.8331 117.542 12.1291C117.044 11.4252 116.777 10.5842 116.778 9.72222V1.38889ZM136.222 37.5V19.4444H132.056C131.687 19.4444 131.334 19.2981 131.073 19.0376C130.813 18.7772 130.667 18.4239 130.667 18.0556V6.94444C130.667 5.10278 131.572 3.38056 132.808 2.14167C134.047 0.905556 135.769 0 137.611 0C137.979 0 138.333 0.146329 138.593 0.406796C138.854 0.667263 139 1.02053 139 1.38889V37.5C139 37.8684 138.854 38.2216 138.593 38.4821C138.333 38.7426 137.979 38.8889 137.611 38.8889C137.243 38.8889 136.889 38.7426 136.629 38.4821C136.369 38.2216 136.222 37.8684 136.222 37.5Z" fill="#23830C"/>
<path d="M2.02273 36V12.7273H6.94318V22.9886H7.25L15.625 12.7273H21.5227L12.8864 23.1477L21.625 36H15.7386L9.36364 26.4318L6.94318 29.3864V36H2.02273ZM25.0881 36V18.5455H29.929V36H25.0881ZM27.5199 16.2955C26.8002 16.2955 26.1828 16.0568 25.6676 15.5795C25.16 15.0947 24.9062 14.5152 24.9062 13.8409C24.9062 13.1742 25.16 12.6023 25.6676 12.125C26.1828 11.6402 26.8002 11.3977 27.5199 11.3977C28.2396 11.3977 28.8532 11.6402 29.3608 12.125C29.8759 12.6023 30.1335 13.1742 30.1335 13.8409C30.1335 14.5152 29.8759 15.0947 29.3608 15.5795C28.8532 16.0568 28.2396 16.2955 27.5199 16.2955ZM33.8068 36V18.5455H38.4205V21.625H38.625C38.9886 20.6023 39.5947 19.7955 40.4432 19.2045C41.2917 18.6136 42.3068 18.3182 43.4886 18.3182C44.6856 18.3182 45.7045 18.6174 46.5455 19.2159C47.3864 19.8068 47.947 20.6098 48.2273 21.625H48.4091C48.7652 20.625 49.4091 19.8258 50.3409 19.2273C51.2803 18.6212 52.3902 18.3182 53.6705 18.3182C55.2992 18.3182 56.6212 18.8371 57.6364 19.875C58.6591 20.9053 59.1705 22.3674 59.1705 24.2614V36H54.3409V25.2159C54.3409 24.2462 54.0833 23.5189 53.5682 23.0341C53.053 22.5492 52.4091 22.3068 51.6364 22.3068C50.7576 22.3068 50.072 22.5871 49.5795 23.1477C49.0871 23.7008 48.8409 24.4318 48.8409 25.3409V36H44.1477V25.1136C44.1477 24.2576 43.9015 23.5758 43.4091 23.0682C42.9242 22.5606 42.2841 22.3068 41.4886 22.3068C40.9508 22.3068 40.4659 22.4432 40.0341 22.7159C39.6098 22.9811 39.2727 23.3561 39.0227 23.8409C38.7727 24.3182 38.6477 24.8788 38.6477 25.5227V36H33.8068ZM63.0852 36V12.7273H67.9261V21.4773H68.0739C68.286 21.0076 68.5928 20.5303 68.9943 20.0455C69.4034 19.553 69.9337 19.1439 70.5852 18.8182C71.2443 18.4848 72.0625 18.3182 73.0398 18.3182C74.3125 18.3182 75.4867 18.6515 76.5625 19.3182C77.6383 19.9773 78.4981 20.9735 79.142 22.3068C79.786 23.6326 80.108 25.2955 80.108 27.2955C80.108 29.2424 79.7936 30.8864 79.1648 32.2273C78.5436 33.5606 77.6951 34.572 76.6193 35.2614C75.5511 35.9432 74.3542 36.2841 73.0284 36.2841C72.089 36.2841 71.2898 36.1288 70.6307 35.8182C69.9792 35.5076 69.4451 35.1174 69.0284 34.6477C68.6117 34.1705 68.2936 33.6894 68.0739 33.2045H67.858V36H63.0852ZM67.8239 27.2727C67.8239 28.3106 67.9678 29.2159 68.2557 29.9886C68.5436 30.7614 68.9602 31.3636 69.5057 31.7955C70.0511 32.2197 70.714 32.4318 71.4943 32.4318C72.2822 32.4318 72.9489 32.2159 73.4943 31.7841C74.0398 31.3447 74.4527 30.7386 74.733 29.9659C75.0208 29.1856 75.1648 28.2879 75.1648 27.2727C75.1648 26.2652 75.0246 25.3788 74.7443 24.6136C74.464 23.8485 74.0511 23.25 73.5057 22.8182C72.9602 22.3864 72.2898 22.1705 71.4943 22.1705C70.7064 22.1705 70.0398 22.3788 69.4943 22.7955C68.9564 23.2121 68.5436 23.803 68.2557 24.5682C67.9678 25.3333 67.8239 26.2348 67.8239 27.2727ZM91.2926 36.3409C89.4972 36.3409 87.9517 35.9773 86.6562 35.25C85.3684 34.5152 84.3759 33.4773 83.679 32.1364C82.982 30.7879 82.6335 29.1932 82.6335 27.3523C82.6335 25.5568 82.982 23.9811 83.679 22.625C84.3759 21.2689 85.357 20.2121 86.6222 19.4545C87.8949 18.697 89.3873 18.3182 91.0994 18.3182C92.2509 18.3182 93.3229 18.5038 94.3153 18.875C95.3153 19.2386 96.1866 19.7879 96.929 20.5227C97.679 21.2576 98.2623 22.1818 98.679 23.2955C99.0956 24.4015 99.304 25.697 99.304 27.1818V28.5114H84.5653V25.5114H94.7472C94.7472 24.8144 94.5956 24.197 94.2926 23.6591C93.9896 23.1212 93.5691 22.7008 93.0312 22.3977C92.5009 22.0871 91.8835 21.9318 91.179 21.9318C90.4441 21.9318 89.7926 22.1023 89.2244 22.4432C88.6638 22.7765 88.2244 23.2273 87.9062 23.7955C87.5881 24.3561 87.4252 24.9811 87.4176 25.6705V28.5227C87.4176 29.3864 87.5767 30.1326 87.8949 30.7614C88.2206 31.3902 88.679 31.875 89.2699 32.2159C89.8608 32.5568 90.5616 32.7273 91.3722 32.7273C91.91 32.7273 92.4025 32.6515 92.8494 32.5C93.2964 32.3485 93.679 32.1212 93.9972 31.8182C94.3153 31.5152 94.5578 31.1439 94.7244 30.7045L99.2017 31C98.9744 32.0758 98.5085 33.0152 97.804 33.8182C97.107 34.6136 96.2055 35.2348 95.0994 35.6818C94.0009 36.1212 92.732 36.3409 91.2926 36.3409ZM102.463 36V18.5455H107.156V21.5909H107.338C107.656 20.5076 108.19 19.6894 108.94 19.1364C109.69 18.5758 110.554 18.2955 111.531 18.2955C111.774 18.2955 112.035 18.3106 112.315 18.3409C112.596 18.3712 112.842 18.4129 113.054 18.4659V22.7614C112.827 22.6932 112.512 22.6326 112.111 22.5795C111.709 22.5265 111.342 22.5 111.009 22.5C110.296 22.5 109.66 22.6553 109.099 22.9659C108.546 23.2689 108.107 23.6932 107.781 24.2386C107.463 24.7841 107.304 25.4129 107.304 26.125V36H102.463Z" fill="black"/>
<path d="M149.92 42.5455C149.307 42.5455 148.731 42.4962 148.193 42.3977C147.663 42.3068 147.223 42.1894 146.875 42.0455L147.966 38.4318C148.534 38.6061 149.045 38.7008 149.5 38.7159C149.962 38.7311 150.36 38.625 150.693 38.3977C151.034 38.1705 151.311 37.7841 151.523 37.2386L151.807 36.5L145.545 18.5455H150.636L154.25 31.3636H154.432L158.08 18.5455H163.205L156.42 37.8864C156.095 38.8258 155.652 39.6439 155.091 40.3409C154.538 41.0455 153.837 41.5871 152.989 41.9659C152.14 42.3523 151.117 42.5455 149.92 42.5455Z" fill="black"/>
</svg>
